<svg width="24" height="24" viewBox="0 0 24 24" fill="none" xmlns="http://www.w3.org/2000/svg">
<path d="M10.46 18C10.146 17.9981 9.83587 17.93 9.55 17.8C9.24083 17.6637 8.97741 17.4413 8.79122 17.1594C8.60503 16.8774 8.50393 16.5478 8.5 16.21V7.78999C8.50393 7.45214 8.60503 7.12256 8.79122 6.84061C8.97741 6.55867 9.24083 6.33627 9.55 6.19999C9.90574 6.03196 10.3015 5.96724 10.6923 6.01321C11.083 6.05918 11.453 6.21399 11.76 6.45999L16.86 10.67C17.06 10.8292 17.2215 11.0315 17.3325 11.2617C17.4435 11.492 17.5012 11.7444 17.5012 12C17.5012 12.2556 17.4435 12.508 17.3325 12.7382C17.2215 12.9685 17.06 13.1708 16.86 13.33L11.76 17.54C11.3924 17.8381 10.9333 18.0006 10.46 18Z" fill="black"/>
</svg>
