<svg width="24" height="24" viewBox="0 0 24 24" fill="none" xmlns="http://www.w3.org/2000/svg">
<path d="M12 7C10.9506 7 9.92778 7.33019 9.07645 7.94379C8.22512 8.55739 7.58844 9.4233 7.25658 10.4189C6.92473 11.4144 6.91453 12.4892 7.22743 13.4908C7.54033 14.4925 8.16047 15.3704 9 16V20C9 20.5304 9.21071 21.0391 9.58579 21.4142C9.96086 21.7893 10.4696 22 11 22H13C13.5304 22 14.0391 21.7893 14.4142 21.4142C14.7893 21.0391 15 20.5304 15 20V16C15.8395 15.3704 16.4597 14.4925 16.7726 13.4908C17.0855 12.4892 17.0753 11.4144 16.7434 10.4189C16.4116 9.4233 15.7749 8.55739 14.9236 7.94379C14.0722 7.33019 13.0494 7 12 7V7Z" fill="black"/>
<path d="M12 6C12.2652 6 12.5196 5.89464 12.7071 5.70711C12.8946 5.51957 13 5.26522 13 5V3C13 2.73478 12.8946 2.48043 12.7071 2.29289C12.5196 2.10536 12.2652 2 12 2C11.7348 2 11.4804 2.10536 11.2929 2.29289C11.1054 2.48043 11 2.73478 11 3V5C11 5.26522 11.1054 5.51957 11.2929 5.70711C11.4804 5.89464 11.7348 6 12 6Z" fill="black"/>
<path d="M21 11H19C18.7348 11 18.4804 11.1054 18.2929 11.2929C18.1054 11.4804 18 11.7348 18 12C18 12.2652 18.1054 12.5196 18.2929 12.7071C18.4804 12.8946 18.7348 13 19 13H21C21.2652 13 21.5196 12.8946 21.7071 12.7071C21.8946 12.5196 22 12.2652 22 12C22 11.7348 21.8946 11.4804 21.7071 11.2929C21.5196 11.1054 21.2652 11 21 11Z" fill="black"/>
<path d="M5 11H3C2.73478 11 2.48043 11.1054 2.29289 11.2929C2.10536 11.4804 2 11.7348 2 12C2 12.2652 2.10536 12.5196 2.29289 12.7071C2.48043 12.8946 2.73478 13 3 13H5C5.26522 13 5.51957 12.8946 5.70711 12.7071C5.89464 12.5196 6 12.2652 6 12C6 11.7348 5.89464 11.4804 5.70711 11.2929C5.51957 11.1054 5.26522 11 5 11Z" fill="black"/>
<path d="M7.66023 6.42019L6.22023 5.00019C6.0253 4.81587 5.76512 4.71653 5.49695 4.72403C5.22877 4.73153 4.97456 4.84526 4.79023 5.04019C4.60591 5.23513 4.50657 5.4953 4.51407 5.76348C4.52157 6.03165 4.6353 6.28587 4.83023 6.47019L6.27023 7.86019C6.36687 7.9535 6.48131 8.02639 6.60673 8.07449C6.73215 8.1226 6.86598 8.14494 7.00023 8.14019C7.13494 8.13968 7.26815 8.11195 7.39187 8.05868C7.5156 8.00541 7.62728 7.92769 7.72023 7.83019C7.89873 7.63501 7.99264 7.37706 7.98139 7.1128C7.97015 6.84854 7.85467 6.5995 7.66023 6.42019V6.42019Z" fill="black"/>
<path d="M19.1901 5.04958C19.0027 4.86333 18.7493 4.75879 18.4851 4.75879C18.2209 4.75879 17.9675 4.86333 17.7801 5.04958L16.3401 6.41958C16.1539 6.60694 16.0493 6.8604 16.0493 7.12458C16.0493 7.38877 16.1539 7.64222 16.3401 7.82958C16.4331 7.92708 16.5447 8.0048 16.6685 8.05807C16.7922 8.11134 16.9254 8.13907 17.0601 8.13958C17.3176 8.13856 17.5647 8.03826 17.7501 7.85958L19.1901 6.46958C19.2838 6.37662 19.3582 6.26602 19.409 6.14416C19.4598 6.0223 19.4859 5.89159 19.4859 5.75958C19.4859 5.62757 19.4598 5.49686 19.409 5.37501C19.3582 5.25315 19.2838 5.14254 19.1901 5.04958V5.04958Z" fill="black"/>
</svg>
